<svg width="80" height="80" viewBox="0 0 80 80" fill="none" xmlns="http://www.w3.org/2000/svg">
<path d="M65.5555 0C69.3865 0 73.0605 1.52182 75.7693 4.23068C78.4782 6.93954 80 10.6135 80 14.4444V65.5555C80 69.3865 78.4782 73.0605 75.7693 75.7693C73.0605 78.4782 69.3865 80 65.5555 80H14.4444C10.6135 80 6.93954 78.4782 4.23068 75.7693C1.52182 73.0605 0 69.3865 0 65.5555V14.4444C0 10.6135 1.52182 6.93954 4.23068 4.23068C6.93954 1.52182 10.6135 0 14.4444 0H65.5555ZM73.3333 24.4444H6.66667V65.5555C6.66667 69.8489 10.1511 73.3333 14.4444 73.3333H65.5555C67.6183 73.3333 69.5967 72.5139 71.0553 71.0553C72.5139 69.5967 73.3333 67.6183 73.3333 65.5555V24.4444ZM48.8667 31.9778C51.8311 31.9778 54.1822 32.7689 55.92 34.3422C57.6533 35.92 58.5244 38.0533 58.5244 40.7467C58.5244 42.2933 58.1244 43.6711 57.3289 44.88C56.5167 46.1028 55.3939 47.0876 54.0756 47.7333C55.7244 48.5022 56.9956 49.5511 57.8844 50.88C58.7733 52.2133 59.2178 53.7156 59.2178 55.3956C59.2178 58.1733 58.28 60.3733 56.3956 62.0044C54.5156 63.6311 52.0133 64.4444 48.8889 64.4444C45.7511 64.4444 43.2356 63.6267 41.3467 61.9911C39.4578 60.3556 38.5156 58.16 38.5156 55.3956C38.5156 53.7022 38.96 52.1822 39.8622 50.8356C40.76 49.4933 42.0178 48.4578 43.64 47.7333C42.3301 47.0857 41.2164 46.1008 40.4133 44.88C39.6187 43.6497 39.2072 42.2111 39.2311 40.7467C39.2311 38.0578 40.1022 35.92 41.8356 34.3467C43.5689 32.7689 45.9156 31.9778 48.8667 31.9778ZM32.0889 32.3067V64.0089H26.8356V38.64L19.0889 41.2889V36.8444L31.4133 32.3067H32.0889ZM48.8444 49.9067C47.3111 49.9067 46.0889 50.3822 45.1689 51.3378C44.2489 52.2933 43.7911 53.56 43.7911 55.1333C43.7911 56.6844 44.24 57.92 45.1467 58.8444C46.0489 59.7733 47.2978 60.2356 48.8889 60.2356C50.48 60.2356 51.72 59.7867 52.6089 58.8889C53.4978 57.9911 53.9422 56.7422 53.9422 55.1333C53.9422 53.5733 53.48 52.3111 52.5467 51.3467C51.6133 50.3867 50.3778 49.9022 48.8444 49.9022V49.9067ZM48.8667 36.2133C47.52 36.2133 46.4578 36.6356 45.6756 37.48C44.8978 38.3244 44.5067 39.48 44.5067 40.9422C44.5067 42.3867 44.8978 43.5378 45.6889 44.3911C46.4756 45.2444 47.5422 45.6711 48.8889 45.6711C50.2356 45.6711 51.3022 45.2444 52.0889 44.3911C52.88 43.5378 53.2711 42.3911 53.2711 40.9422C53.2711 39.5644 52.8711 38.4356 52.08 37.5467C51.28 36.6578 50.2133 36.2133 48.8667 36.2133ZM65.5555 6.66667H14.4444C13.4231 6.66667 12.4117 6.86784 11.468 7.25871C10.5244 7.64958 9.66696 8.22249 8.94472 8.94472C8.22249 9.66696 7.64958 10.5244 7.25871 11.468C6.86784 12.4117 6.66667 13.4231 6.66667 14.4444V17.7778H73.3333V14.4444C73.3333 12.3816 72.5139 10.4033 71.0553 8.94472C69.5967 7.48611 67.6183 6.66667 65.5555 6.66667Z" fill="white"/>
</svg>
