<svg width="80" height="80" viewBox="0 0 80 80" fill="none" xmlns="http://www.w3.org/2000/svg">
<path d="M9.44999 66.17H56.875C57.29 66.17 57.5 66.38 57.5 66.795V70.545C57.5 70.965 57.29 71.17 56.875 71.17H9.45499C9.03499 71.17 8.82999 70.965 8.82999 70.545V66.795C8.82999 66.38 9.03499 66.17 9.45499 66.17H9.44999ZM64.14 66.17H70.315C70.73 66.17 70.935 66.38 70.935 66.795V70.545C70.935 70.965 70.73 71.17 70.315 71.17H64.14C63.725 71.17 63.515 70.965 63.515 70.545V66.795C63.515 66.38 63.725 66.17 64.14 66.17ZM22.25 60.21C22.4038 60.2098 22.5575 60.1998 22.71 60.18L34.445 58.68C35.2132 58.5788 35.9266 58.2274 36.475 57.68L67.965 26.195C69.04 25.12 69.63 23.65 69.59 22.13C69.563 20.6312 68.9532 19.2018 67.89 18.145L60.765 11.025C59.709 9.95994 58.2795 9.34833 56.78 9.32C56.0276 9.3011 55.2793 9.43541 54.5805 9.71477C53.8817 9.99412 53.247 10.4127 52.715 10.945L21.235 42.43C20.6876 42.9784 20.3362 43.6918 20.235 44.46L18.73 56.205C18.6678 56.705 18.7123 57.2124 18.8605 57.6939C19.0088 58.1755 19.2574 58.6201 19.59 58.9985C19.9226 59.3769 20.3316 59.6806 20.7901 59.8894C21.2486 60.0982 21.7462 60.2075 22.25 60.21ZM25.72 45.9L56.675 14.945C56.72 14.945 56.76 14.97 56.785 15L63.91 22.125C63.945 22.15 63.96 22.19 63.97 22.235L33 53.19L24.645 54.26L25.71 45.9H25.72Z" fill="#FCA311"/>
</svg>
